<svg fill="none" xmlns="http://www.w3.org/2000/svg" viewBox="0 0 24 24">
  <path d="M12.0062 18.322c-3.48255 0-6.31583-2.8333-6.31583-6.3158 0-3.48255 2.83328-6.31583 6.31583-6.31583 3.4825 0 6.3158 2.83328 6.3158 6.31583 0 3.4825-2.8333 6.3158-6.3158 6.3158zm0-11.36846c-2.78611 0-5.05266 2.26655-5.05266 5.05266 0 2.786 2.26655 5.0526 5.05266 5.0526 2.786 0 5.0526-2.2666 5.0526-5.0526 0-2.78611-2.2666-5.05266-5.0526-5.05266zM12 4.67368c-.3488 0-.6316-.28276-.6316-.63157V.631579C11.3684.282761 11.6512 0 12 0c.3488 0 .6316.282761.6316.631579V4.04211c0 .34881-.2828.63157-.6316.63157zM12 24c-.3488 0-.6316-.2828-.6316-.6316v-3.4105c0-.3488.2828-.6316.6316-.6316.3488 0 .6316.2828.6316.6316v3.4105c0 .3488-.2828.6316-.6316.6316zM4.04211 12.6316H.631579C.282761 12.6316 0 12.3488 0 12c0-.3488.282761-.6316.631579-.6316H4.04211c.34881 0 .63157.2828.63157.6316 0 .3488-.28276.6316-.63157.6316zM23.3684 12.6316h-3.4105c-.3488 0-.6316-.2828-.6316-.6316 0-.3488.2828-.6316.6316-.6316h3.4105c.3488 0 .6316.2828.6316.6316 0 .3488-.2828.6316-.6316.6316zM17.5921 7.03945c-.1616 0-.3233-.06165-.4466-.18499-.2466-.24664-.2466-.64655 0-.8932l2.4466-2.44658c.2466-.24665.6466-.24665.8932 0 .2466.24666.2466.64657 0 .89322l-2.4466 2.44656c-.1233.12334-.2849.18499-.4466.18499zM3.9613 20.6702c-.16163 0-.32329-.0616-.44661-.1849-.24662-.2467-.24662-.6466 0-.8932l2.44657-2.4466c.24665-.2467.64657-.2467.89321 0 .24663.2467.24663.6466 0 .8932l-2.44656 2.4466c-.12333.1233-.28498.1849-.44661.1849zM6.40788 7.03945c-.16164 0-.3233-.06165-.44662-.18499L3.51469 4.4079c-.24662-.24665-.24662-.64656 0-.89322.24665-.24665.64657-.24665.89322 0l2.44656 2.44658c.24663.24665.24663.64656 0 .8932-.12329.12334-.28497.18499-.44659.18499zM20.0387 20.6702c-.1616 0-.3232-.0616-.4466-.1849l-2.4466-2.4466c-.2466-.2466-.2466-.6465 0-.8932.2467-.2467.6466-.2467.8932 0l2.4466 2.4466c.2466.2466.2466.6465 0 .8932-.1233.1233-.285.1849-.4466.1849z" fill="#ffffff"/>
</svg>
