<svg fill="none" xmlns="http://www.w3.org/2000/svg" viewBox="0 0 24 24">
  <g clip-path="url(#clip0)">
    <path d="M13.0342 21.9252c-5.49113 0-9.95852-4.4674-9.95852-9.9585 0-5.49119 4.46739-9.95858 9.95852-9.95858.266 0 .5386.0111.81.03298.2969.02399.558.20512.6846.47467.1265.26955.0988.58626-.0724.82987-.9847 1.4005-1.5052 3.04882-1.5052 4.76668 0 2.09888.7853 4.10168 2.2112 5.63978 1.4182 1.53 3.3399 2.4645 5.411 2.6314.2967.0239.558.2051.6845.4747.1265.2695.0989.5862-.0723.8299-1.8655 2.6531-4.9127 4.2371-8.1514 4.2371zm-.7136-18.22694c-4.24305.36323-7.58517 3.93291-7.58517 8.26844 0 4.5759 3.72282 8.2987 8.29877 8.2987 2.2316 0 4.3542-.9026 5.9014-2.4654-1.9033-.4528-3.6379-1.4605-4.9904-2.9194-1.7113-1.846-2.6537-4.2496-2.6537-6.76828 0-1.5484.3525-3.04995 1.0291-4.41406z" fill="#ffffff"/>
  </g>
  <defs>
    <clipPath id="clip0">
      <path fill="#fff" transform="translate(3 2)" d="M0 0h18.3402v20H0z"/>
    </clipPath>
  </defs>
</svg>
