<svg fill="none" xmlns="http://www.w3.org/2000/svg" viewBox="0 0 24 24">
  <g clip-path="url(#clip0)" fill="#ffffff">
    <path d="M17.0503 15.0869c-.1517 0-.3022-.0658-.4053-.1928-.1817-.2237-.1476-.5523.0761-.7339.9818-.7973 1.5448-1.979 1.5448-3.2421 0-2.30152-1.8724-4.17388-4.1739-4.17388-2.1289 0-3.912 1.59276-4.14788 3.70488-.03199.2864-.28993.4925-.57642.4607-.28633-.032-.49257-.2901-.46059-.5764C9.202 7.69232 11.431 5.70073 14.092 5.70073c2.8769 0 5.2174 2.34053 5.2174 5.21737 0 1.5789-.7036 3.0558-1.9305 4.0521-.0967.0785-.213.1167-.3286.1167zM14.087 4.86087c-.2881 0-.5218-.23359-.5218-.52174V1.52174c0-.28815.2337-.52174.5218-.52174s.5217.23359.5217.52174v2.81739c0 .28815-.2336.52174-.5217.52174zM7.51305 11.4348H4.69566c-.28816 0-.52174-.2336-.52174-.5217 0-.2882.23358-.5218.52174-.5218h2.81739c.28816 0 .52174.2336.52174.5218 0 .2881-.23358.5217-.52174.5217zM23.4783 11.4348h-2.8174c-.2881 0-.5218-.2336-.5218-.5217 0-.2882.2337-.5218.5218-.5218h2.8174c.2881 0 .5217.2336.5217.5218 0 .2881-.2336.5217-.5217.5217zM18.7065 6.81519c-.1335 0-.267-.05092-.3689-.15282-.2038-.20374-.2038-.5341 0-.73785l2.0211-2.02108c.2038-.20375.534-.20375.7379 0 .2037.20376.2037.53412 0 .73788l-2.0211 2.02105c-.1019.1019-.2354.15282-.369.15282zM9.46736 6.81519c-.13351 0-.26708-.05092-.36892-.15282L7.07733 4.64132c-.20369-.20376-.20369-.53412 0-.73788.20379-.20375.53415-.20375.73789 0l2.02106 2.02108c.20372.20375.20372.53411 0 .73785-.10184.1019-.23541.15282-.36892.15282zM20.7276 18.0754c-.1335 0-.267-.0509-.3689-.1527l-2.0211-2.0211c-.2038-.2038-.2038-.5342 0-.7379.2038-.2038.5341-.2038.7379 0l2.0211 2.0211c.2037.2037.2037.5341 0 .7379-.102.1018-.2354.1527-.369.1527z"/>
    <path d="M3.65043 22.913C1.64321 22.8998.013031 21.2613.013031 19.2606c0-1.7387 1.199309-3.192 2.831939-3.5616-.02655-.146-.03987-.2951-.03987-.4465 0-1.3698 1.11433-2.484 2.48402-2.484.45495 0 .89102.1214 1.27148.3489 1.04248-1.3786 2.65106-2.186 4.4067-2.186 2.7437 0 5.0564 2.0211 5.4667 4.6844 1.8991.1279 3.4051 1.7138 3.4051 3.6448 0 1.9942-1.6224 3.6325-3.6166 3.6522l-12.57207.0002zm1.63869-9.1011c-.7943 0-1.44054.6462-1.44054 1.4406 0 .2265.05143.4438.15288.6456.07966.1584.07337.3465-.01672.4993-.09008.1528-.25162.2494-.42885.2563-1.40151.0553-2.49938 1.2004-2.49938 2.6069 0 1.4291 1.16517 2.5995 2.59736 2.609l12.56353-.0003c1.4193-.014 2.5782-1.1843 2.5782-2.6087 0-1.439-1.1706-2.6096-2.6095-2.6096-.0536 0-.1119.0023-.1834.0072-.1381.0095-.2752-.0363-.3797-.1277-.1045-.0915-.1683-.2207-.1771-.3594-.151-2.353-2.1182-4.1962-4.4786-4.1962-1.583 0-3.01877.8092-3.84077 2.1645-.08322.1372-.22498.2284-.38432.2475-.15934.0188-.31857-.0364-.43174-.1502-.27245-.2739-.63516-.4248-1.02135-.4248z"/>
  </g>
  <defs>
    <clipPath id="clip0">
      <path fill="#fff" transform="translate(0 1)" d="M0 0h24v21.913H0z"/>
    </clipPath>
  </defs>
</svg>
