<svg fill="none" xmlns="http://www.w3.org/2000/svg" viewBox="0 0 24 24">
  <g clip-path="url(#clip0)" fill="#ffffff">
    <path d="M3.78199 21.5676C1.70244 21.5539.0135193 19.8563.0135193 17.7835c0-1.8014 1.2425007-3.3071 2.9340207-3.6899-.02751-.1513-.04134-.3058-.04134-.4627 0-1.4191 1.15451-2.5735 2.57354-2.5735.4714 0 .92313.1257 1.31729.3615 1.08011-1.42825 2.74665-2.26474 4.56537-2.26474 2.8426 0 5.2387 2.09394 5.6639 4.85314 1.9675.1326 3.5278 1.7756 3.5278 3.7762 0 2.066-1.6809 3.7634-3.747 3.7838l-13.02511.0003zm1.69775-9.4291c-.82296 0-1.49246.6694-1.49246 1.4924 0 .2348.05332.4598.15842.6689.08251.1641.07601.359-.01732.5173s-.26071.2584-.4443.2656c-1.45202.0573-2.58948 1.2436-2.58948 2.7008 0 1.4806 1.20714 2.6932 2.69093 2.703l13.01627-.0003c1.4705-.0145 2.6712-1.227 2.6712-2.7027 0-1.4909-1.2129-2.7037-2.7036-2.7037-.0556 0-.1159.0024-.19.0075-.143.0099-.2851-.0376-.3934-.1323-.1083-.0947-.1743-.2287-.1835-.3723-.1564-2.4378-2.1946-4.3475-4.6401-4.3475-1.63991 0-3.12742.8384-3.9791 2.2425-.08621.1422-.23308.2368-.3981.2565-.16514.0196-.33006-.0377-.44736-.1556-.28221-.2838-.65805-.4401-1.0581-.4401z"/>
    <path d="M19.9589 14.8198c-.245 0-.4669-.1677-.5256-.4166-.0686-.2906.1114-.5816.402-.6501.9913-.2338 1.8895-.7425 2.5993-1.4615-1.2401-.2949-2.3702-.9513-3.2514-1.9018-1.1146-1.2024-1.7285-2.76807-1.7285-4.40854 0-1.00855.2297-1.98667.6704-2.87521-1.2435.10558-2.4038.63376-3.307 1.51381-1.0131.98701-1.5925 2.30793-1.6316 3.71943-.0082.29844-.2561.53568-.5552.52541-.2984-.00827-.5336-.25687-.5254-.5553.0468-1.6942.742-3.2795 1.9577-4.46388 1.218-1.18668 2.8254-1.84021 4.5262-1.84021.1733 0 .3508.00721.5275.02143.1934.01555.3636.13353.446.30912.0824.1756.0644.38189-.0471.54057-.6414.91229-.9804 1.9859-.9804 3.10483 0 1.36708.5115 2.67171 1.4402 3.67355.9238.99649 2.1755 1.60519 3.5245 1.71389.1933.0156.3634.1336.4459.3092.0823.1756.0643.3818-.0472.5405-.9169 1.3042-2.2721 2.2229-3.8158 2.5869-.0417.0098-.0834.0145-.1245.0145z"/>
  </g>
  <defs>
    <clipPath id="clip0">
      <path fill="#fff" transform="translate(0 2)" d="M0 0h24v19.5676H0z"/>
    </clipPath>
  </defs>
</svg>
