<svg fill="none" xmlns="http://www.w3.org/2000/svg" viewBox="0 0 24 24">
  <g clip-path="url(#clip0)">
    <path d="M4.40317 19.5384C1.97337 19.5225 0 17.539 0 15.117c0-2.1047 1.4518-3.864 3.42813-4.3113-.03213-.1768-.04826-.3572-.04826-.5406 0-1.65803 1.34893-3.00695 3.00697-3.00695.55074 0 1.07861.14698 1.53916.4224 1.26196-1.66882 3.2092-2.64616 5.3344-2.64616 3.3213 0 6.1209 2.44663 6.6177 5.67061C22.1769 10.8598 24 12.7795 24 15.117c0 2.414-1.964 4.3974-4.378 4.4211l-15.21883.0003zM6.38684 8.52131c-.96152 0-1.74381.78225-1.74381 1.74379 0 .2743.06226.5373.18506.7815.09644.1919.08882.4195-.02023.6045-.10905.1849-.30459.3018-.51914.3103-1.69656.067-3.02556 1.4531-3.02556 3.1556 0 1.7301 1.41047 3.1469 3.14417 3.1583l15.20847-.0003c1.7182-.0169 3.121-1.4336 3.121-3.158 0-1.7419-1.4171-3.159-3.1589-3.159-.0649 0-.1355.0028-.222.0089-.1676.0117-.3331-.0441-.4596-.1547-.1265-.1107-.2037-.2673-.2145-.4349-.1827-2.8485-2.5641-5.07975-5.4214-5.07975-1.9162 0-3.65427.9795-4.64933 2.62016-.10073.1661-.27233.27659-.46522.29963-.19282.02276-.38564-.04401-.52263-.18176-.32981-.33165-.76888-.51427-1.23638-.51427z" fill="#ffffff"/>
  </g>
  <defs>
    <clipPath id="clip0">
      <path fill="#fff" transform="translate(0 5)" d="M0 0h24v14.5895H0z"/>
    </clipPath>
  </defs>
</svg>
