<svg fill="none" xmlns="http://www.w3.org/2000/svg" viewBox="0 0 24 24">
  <g clip-path="url(#clip0)" fill="#ffffff">
    <path d="M19.6156 16.5321l-.6685-.0003-14.54393-.0055C1.97526 16.5263 0 14.5456 0 12.111c0-2.1017 1.45177-3.8586 3.42813-4.30539-.03213-.17678-.04826-.35724-.04826-.54055 0-1.65807 1.34893-3.00697 3.00697-3.00697.5508 0 1.07868.14692 1.53916.42231 1.26202-1.66893 3.2093-2.6464 5.3344-2.6464 3.3211 0 6.1205 2.44601 6.6175 5.66947C22.177 7.85809 24 9.77721 24 12.114c0 2.4124-1.964 4.3943-4.378 4.418-.0021.0001-.0043.0001-.0064.0001zm-.668-1.2634l.6651.0002c1.723-.0186 3.1241-1.4333 3.1241-3.1549 0-1.741-1.4171-3.1574-3.1589-3.1574-.0749 0-.1542.0048-.222.00948-.1675.01219-.3331-.04396-.4596-.15468-.1265-.11065-.2037-.26722-.2145-.4349-.1827-2.84822-2.5641-5.07934-5.4214-5.07934-1.9162 0-3.65421.97956-4.64933 2.62037-.10073.1661-.27233.27662-.46522.29963-.19288.02276-.38564-.04404-.52263-.18176-.32975-.33158-.76882-.51415-1.23638-.51415-.96152 0-1.74381.78226-1.74381 1.74381 0 .27441.06226.53734.18503.78152.09647.19182.08885.41954-.0202.60453-.10905.18486-.30459.30183-.51914.31029-1.69656.06695-3.02556 1.4505-3.02556 3.1496 0 1.7381 1.40859 3.1522 3.14001 3.1522h.64946l13.89497.0055zM18.1658 21.8948h-.0005l-3.5605-.0016c-.3487-.0002-.6313-.2823-.6311-.6312.0002-.3487.2829-.6304.6316-.6304h.0004l3.5605.002c.3488.0003.6314.2821.6312.631-.0002.3487-.283.6302-.6316.6302zM12.1421 21.8948h-.0002l-6.27894-.0016c-.34879-.0001-.63146-.2822-.63133-.631.00012-.3487.28288-.6306.63158-.6306h.00024l6.27895.002c.3487.0001.6314.2819.6313.6308-.0001.3487-.2829.6304-.6316.6304zM19.6342 19.2421h-.0002l-8.1815-.0015c-.3488-.0001-.6315-.2822-.6314-.631.0001-.3487.2829-.6307.6316-.6307h.0002l8.1815.0021c.3488.0001.6314.2819.6314.6307-.0001.3487-.2829.6304-.6316.6304zM9.08686 19.2421h-.00032l-4.5184-.0015c-.34878-.0002-.63142-.2823-.63124-.6312.00019-.3486.28295-.6305.63158-.6305h.00034l4.51836.0021c.34882.0002.63145.282.63126.6308-.00019.3487-.28295.6303-.63158.6303z"/>
  </g>
  <defs>
    <clipPath id="clip0">
      <path fill="#fff" transform="translate(0 2)" d="M0 0h24v19.8947H0z"/>
    </clipPath>
  </defs>
</svg>
