<svg fill="none" xmlns="http://www.w3.org/2000/svg" viewBox="0 0 24 24">
  <g clip-path="url(#clip0)" fill="#ffffff">
    <path d="M19.6156 15.5321l-.6685-.0003-14.54393-.0055C1.97526 15.5263 0 13.5456 0 11.1109c0-2.10166 1.45177-3.85855 3.42813-4.30534-.0321-.17677-.04826-.35718-.04826-.54048 0-1.65809 1.34893-3.00704 3.00697-3.00704.5508 0 1.07861.14692 1.53916.42235 1.26202-1.66894 3.2093-2.64641 5.3344-2.64641 3.3211 0 6.1205 2.44601 6.6175 5.66944C22.177 6.85804 24 8.77713 24 11.114c0 2.4124-1.964 4.3943-4.378 4.418-.0021.0001-.0043.0001-.0064.0001zm-.668-1.2635l.6651.0003c1.723-.0186 3.1241-1.4333 3.1241-3.1549 0-1.74103-1.4171-3.15748-3.1589-3.15748-.0744 0-.154.00487-.222.00954-.1675.01181-.3331-.04396-.4596-.15467-.1265-.11066-.2037-.26722-.2145-.43497-.1827-2.84818-2.5641-5.07928-5.4214-5.07928-1.9162 0-3.65421.97959-4.64933 2.62037-.10073.1661-.27233.27659-.46522.29963-.19295.02273-.38564-.044-.52263-.18176-.32975-.33158-.76882-.51418-1.23638-.51418-.96152 0-1.74381.78229-1.74381 1.74388 0 .27434.06226.53727.18506.78151.09644.19182.08882.41951-.02023.6045-.10905.18493-.30459.30177-.51914.3103-1.69656.06694-3.02556 1.45042-3.02556 3.14951 0 1.7381 1.40859 3.1523 3.14001 3.1523h.64946l13.89497.0054zM9.7868 22.2804c-.16175 0-.3235-.0617-.44684-.1852-.24651-.2468-.24632-.6467.0005-.8932l1.58164-1.58c.2467-.2465.6466-.2463.8931.0004.2465.2468.2464.6468-.0005.8932l-1.5816 1.58c-.1232.1232-.28481.1848-.4463.1848zM4.2921 18.6804c-.16175 0-.32347-.0618-.44682-.1852-.24653-.2468-.24631-.6466.00046-.8932l.99739-.9964c.24677-.2465.64666-.2464.89318.0005.24653.2467.24631.6466-.00046.8931l-.99739.9964c-.12329.1232-.28483.1848-.44636.1848zM13.071 18.6804c-.1617 0-.3235-.0618-.4468-.1852-.2465-.2468-.2463-.6466.0005-.8932l.9974-.9964c.2468-.2465.6466-.2464.8932.0005.2465.2467.2463.6466-.0005.8931l-.9974.9964c-.1233.1232-.2848.1848-.4464.1848zM15.9131 20.2697c-.1618 0-.3235-.0618-.4469-.1853-.2465-.2468-.2462-.6467.0007-.8932l2.5889-2.5856c.2468-.2465.6467-.2464.8932.0005.2465.2468.2462.6467-.0006.8931l-2.589 2.5857c-.1233.1232-.2848.1848-.4463.1848zM6.3763 20.9644c-.16175 0-.32347-.0618-.44682-.1852-.24653-.2468-.24631-.6467.00046-.8932l3.28373-3.2804c.24676-.2465.64668-.2464.89323.0005.2465.2467.2463.6466-.0005.8931l-3.28376 3.2804c-.12329.1232-.28485.1848-.44634.1848z"/>
  </g>
  <defs>
    <clipPath id="clip0">
      <path fill="#fff" transform="translate(0 1)" d="M0 0h24v21.2842H0z"/>
    </clipPath>
  </defs>
</svg>
