<svg fill="none" xmlns="http://www.w3.org/2000/svg" viewBox="0 0 24 24">
  <g clip-path="url(#clip0)" fill="#ffffff">
    <path d="M16.2997 11.8478c-.1276 0-.255-.0504-.3498-.1503-.1832-.1931-.1751-.4982.018-.6815.7352-.6974 1.1402-1.63936 1.1402-2.65239 0-2.01549-1.6397-3.65518-3.6552-3.65518-1.7703 0-3.283 1.26203-3.59693 3.00089-.04729.26192-.2982.43591-.55997.38872-.26202-.04729-.43606-.29805-.38872-.56002.39684-2.1982 2.30852-3.79365 4.54562-3.79365 2.547 0 4.6192 2.0722 4.6192 4.61924 0 1.28017-.5116 2.47049-1.4407 3.35189-.0932.0884-.2126.1323-.3317.1323zM12.0242 3.34009c-.2218 0-.4213-.15387-.4705-.37938L11.0453.630733c-.0567-.260092.1081-.516939.3682-.5736988.2606-.05681.517.1081448.5737.3682118l.5083 2.329974c.0569.26009-.108.51694-.3681.5737-.0346.00756-.0692.01117-.1032.01117zM19.1091 7.84465c-.2217 0-.4213-.15389-.4705-.37938-.0567-.26009.1081-.51694.3682-.57372l2.4786-.54073c.2607-.05683.5171.10812.5738.36817.0567.26009-.1081.51693-.3682.57371l-2.4787.54079c-.0346.00756-.0692.01116-.1032.01116zM16.5149 4.15342c-.0891 0-.1794-.02467-.2599-.07641-.2241-.14379-.2892-.44199-.1454-.66603l1.3603-2.11936c.1438-.22404.442-.28908.6661-.14531.224.1438.2891.44199.1453.66604L16.921 3.93171c-.0921.14345-.2474.22171-.4061.22171zM8.56154 5.88865c-.0891 0-.17932-.02471-.25989-.07642L6.18229 4.45198c-.22408-.1438-.28914-.44199-.14534-.66604.14382-.22404.44202-.28907.66603-.1453l2.11936 1.36024c.22407.14382.28912.44202.14532.66603-.09204.14344-.24746.22174-.40612.22174zM20.3199 13.4779c-.0892 0-.1794-.0247-.26-.0764l-2.1193-1.3603c-.2241-.1437-.2891-.4419-.1453-.666.1438-.224.4419-.2892.6661-.1453l2.1193 1.3602c.224.1438.2891.442.1453.6661-.0921.1434-.2475.2217-.4061.2217z"/>
    <path d="M4.25296 18.9545c-1.7809-.0118-3.22719-1.4655-3.22719-3.2405 0-1.5352 1.0539-2.8197 2.49181-3.1551-.02116-.1232-.03176-.2488-.03176-.3764 0-1.2191.99181-2.21093 2.21095-2.21093.39809 0 .78.10443 1.11448.30043.92317-1.21056 2.3413-1.91899 3.88845-1.91899 2.4225 0 4.4654 1.77989 4.836 4.12869 1.6765.1221 3.0031 1.5251 3.0031 3.2323 0 1.7692-1.4394 3.2228-3.2086 3.2402l-11.07724.0003zm1.44381-8.0189c-.68752 0-1.24689.5594-1.24689 1.2469 0 .1962.0445.3842.1323.5588.07363.1464.06783.3201-.01541.4613-.0832.1412-.23244.2304-.39621.2369-1.22287.0482-2.18073 1.0473-2.18073 2.2745 0 1.2469 1.01668 2.2681 2.26631 2.2764l11.06936-.0002c1.2381-.0123 2.2493-1.0334 2.2493-2.2762 0-1.2555-1.0215-2.2769-2.2769-2.2769-.047 0-.0979.002-.1601.0063-.1284.0091-.2543-.0336-.3507-.1181-.0966-.0845-.1555-.2039-.1637-.3319-.1322-2.0615-1.8557-3.67633-3.9237-3.67633-1.38682 0-2.64476.70893-3.36491 1.89633-.07692.1268-.20783.2111-.35503.2287-.14735.0175-.29439-.0337-.39892-.1387-.23584-.2372-.54985-.3678-.88407-.3678zM8.48169 23.991c-.1234 0-.24685-.0472-.34102-.1414-.18814-.1883-.18799-.4935.00036-.6817l1.15118-1.15c.18835-.1881.49349-.188.68164.0003.18815.1884.18795.4936-.00031.6817l-1.15118 1.15c-.09407.0941-.21737.1411-.34067.1411zM4.48238 21.3707c-.12343 0-.24686-.0471-.34101-.1414-.18814-.1883-.18799-.4935.00035-.6816l.72597-.7253c.18829-.1881.49348-.188.68167.0004.18815.1883.18799.4935-.00035.6817l-.72597.7252c-.09409.094-.21738.141-.34066.141zM10.8721 21.3707c-.1234 0-.2468-.0471-.341-.1413-.1881-.1884-.1879-.4936.0004-.6817l.7259-.7253c.1883-.1881.4935-.188.6817.0004.1881.1883.188.4935-.0004.6817l-.7259.7252c-.0941.094-.2174.141-.3407.141zM12.9408 22.5275c-.1235 0-.2469-.0472-.3411-.1414-.1881-.1884-.1879-.4936.0005-.6817l1.8844-1.882c.1883-.1882.4935-.1879.6816.0004.1881.1884.1879.4936-.0005.6817l-1.8843 1.882c-.0941.094-.2173.141-.3406.141zM5.99937 23.0331c-.12343 0-.24686-.0471-.34101-.1413-.18814-.1884-.188-.4936.00034-.6817l2.39004-2.3877c.18835-.1881.49355-.1879.68169.0004.18814.1883.18799.4935-.00036.6817l-2.39005 2.3876c-.09407.094-.21737.141-.34065.141z"/>
  </g>
  <defs>
    <clipPath id="clip0">
      <path fill="#fff" transform="translate(1)" d="M0 0h21.1078v24H0z"/>
    </clipPath>
  </defs>
</svg>
