<svg fill="none" xmlns="http://www.w3.org/2000/svg" viewBox="0 0 23 24">
  <g clip-path="url(#clip0)" fill="#ffffff">
    <path d="M3.54918 18.3063C1.59364 18.2934.0055847 16.6972.0055847 14.7481c0-1.6794 1.1488153-3.0856 2.7188053-3.4602-.02131-.13-.03201-.2624-.03201-.3967 0-1.34201 1.09176-2.43374 2.43371-2.43374.43252 0 .84761.11193 1.21236.32226C7.35043 7.46103 8.90006 6.6897 10.5901 6.6897c2.65 0 4.8857 1.94345 5.2982 4.5103 1.8336.1414 3.2825 1.6788 3.2825 3.5481 0 1.9427-1.5805 3.5388-3.5231 3.5579l-12.09852.0003zm1.57691-8.75793c-.74041 0-1.3428.60243-1.3428 1.34283 0 .2112.04794.4136.14249.6018.0833.1656.0767.3623-.01748.522-.09417.1597-.26309.2606-.44835.268-1.32528.0523-2.36346 1.1352-2.36346 2.4651 0 1.3516 1.10189 2.4584 2.45631 2.4673l12.0895-.0003c1.3417-.0132 2.4376-1.1199 2.4376-2.467 0-1.3607-1.1071-2.4678-2.4677-2.4678-.0507 0-.1058.0022-.1736.007-.1453.0101-.2876-.0381-.3968-.1337-.1093-.0955-.1759-.2308-.1853-.3756-.1438-2.24152-2.0178-3.99739-4.2664-3.99739-1.50791 0-2.87569.77084-3.65885 2.06198-.08695.14346-.23515.23891-.40173.25881-.16653.0197-.333-.0381-.45137-.15703-.25396-.25538-.59209-.396-.95206-.396z"/>
    <path d="M18.9407 11.9391c-.2327 0-.4482-.15-.5208-.384-.0892-.2877.0717-.5933.3594-.6825.7537-.2338 1.4446-.6501 2.0082-1.20201-1.13-.28423-2.159-.89078-2.9652-1.76034-1.0427-1.12484-1.617-2.58953-1.617-4.12423 0-.91723.203-1.80749.5932-2.62007-1.0773.10877-2.0881.56436-2.8882 1.31005-.9193.8569-1.4772 2.01634-1.5705 3.26476-.0225.30038-.2849.52614-.5846.50323-.3004-.02247-.5257-.28423-.5033-.58467.1139-1.52283.7939-2.93678 1.9146-3.98137C14.2931.627949 15.7622.0496826 17.3031.0496826c.1623 0 .3283.0067383.4935.020055.195.0157402.3668.1347924.4499.3119584.0832.177193.065.385333-.0476.545457-.5905.839967-.9027 1.828547-.9027 2.858867 0 1.25878.471 2.4601 1.3262 3.38257.8506.91757 2.0031 1.47802 3.2452 1.57811.195.01577.3668.13484.4499.312.0832.17717.0651.38537-.0475.54546-.77 1.09514-1.8949 1.91564-3.1675 2.31034-.0538.0167-.1083.0246-.1618.0246zM8.46905 23.9524c-.13974 0-.27938-.0534-.38591-.16-.21289-.2131-.21272-.5585.00038-.7713l1.25727-1.256c.21311-.2129.55854-.2128.77141.0003.2129.2131.2127.5585-.0004.7714l-1.25728 1.256c-.10647.1063-.246.1596-.38547.1596zM4.10105 21.0906c-.13972 0-.27938-.0533-.38592-.16-.21286-.2131-.21269-.5585.00043-.7714l.79288-.792c.21312-.2129.55851-.2127.77141.0004.21284.2131.21268.5585-.00042.7714l-.79289.792c-.10648.1064-.24598.1596-.38549.1596zM11.0798 21.0906c-.1398 0-.2794-.0533-.3859-.1599-.2129-.2132-.2128-.5585.0004-.7714l.7928-.7921c.2131-.2129.5584-.2127.7713.0004.213.2131.2128.5585-.0003.7714l-.7929.792c-.1064.1064-.2459.1596-.3854.1596zM13.3391 22.354c-.1398 0-.2795-.0533-.3859-.16-.213-.2131-.2128-.5585.0004-.7714l2.0581-2.0554c.2132-.213.5586-.2127.7713.0005.213.2131.2127.5585-.0004.7714l-2.0581 2.0554c-.1065.1064-.246.1595-.3854.1595zM5.75787 22.9062c-.13975 0-.27944-.0532-.38589-.1599-.21291-.2131-.21275-.5585.00037-.7714l2.61037-2.6077c.21311-.2129.55854-.2127.77132.0004.21295.2131.21279.5586-.00038.7714l-2.61032 2.6076c-.10647.1065-.246.1596-.38547.1596z"/>
  </g>
  <defs>
    <clipPath id="clip0">
      <path fill="#fff" d="M0 0h22.4182v24H0z"/>
    </clipPath>
  </defs>
</svg>
