<svg fill="none" xmlns="http://www.w3.org/2000/svg" viewBox="0 0 24 24">
  <g clip-path="url(#clip0)" fill="#ffffff">
    <path d="M19.6156 15.5321l-.6685-.0003c-.3488-.0001-.6314-.283-.6313-.6318.0001-.3487.2829-.6314.6316-.6314h.0002l.6651.0003c1.723-.0186 3.1241-1.4333 3.1241-3.1549 0-1.74103-1.4171-3.15748-3.1589-3.15748-.0744 0-.154.00487-.222.00954-.1676.01181-.3331-.04396-.4596-.15467-.1265-.11066-.2037-.26722-.2145-.43497-.1827-2.84818-2.5641-5.07928-5.4214-5.07928-1.9162 0-3.65421.97959-4.64933 2.62037-.10073.1661-.27233.27659-.46522.29963-.19282.02273-.38564-.044-.52263-.18176-.32975-.33158-.76882-.51418-1.23638-.51418-.96152 0-1.74381.78229-1.74381 1.74388 0 .27434.06226.53727.18507.78151.09643.19182.08881.41951-.02024.6045-.10904.18493-.30459.30177-.51914.3103-1.69656.06694-3.02556 1.45042-3.02556 3.14951 0 1.7381 1.40859 3.1523 3.14001 3.1523h.64946c.34882 0 .63158.2828.63158.6315 0 .3488-.28276.6316-.63158.6316h-.64946C1.97526 15.5263 0 13.5456 0 11.1109c0-2.10166 1.45177-3.85855 3.42813-4.30534-.0321-.17677-.04826-.35718-.04826-.54048 0-1.65809 1.34893-3.00704 3.00697-3.00704.5508 0 1.07861.14692 1.53916.42235 1.26202-1.66894 3.2093-2.64641 5.3344-2.64641 3.3211 0 6.1205 2.44601 6.6175 5.66944C22.177 6.85804 24 8.77713 24 11.114c0 2.4124-1.964 4.3943-4.378 4.418-.0021.0001-.0043.0001-.0064.0001z"/>
    <path d="M6.06526 21.4685c-.1615 0-.32297-.0615-.44626-.1846-.24684-.2465-.24712-.6464-.00065-.8932l2.71313-2.717H6.69683c-.25844 0-.49076-.1574-.58657-.3975-.09579-.24-.03571-.5141.15166-.692l3.97898-3.7787c.2529-.2402.6526-.23.8928.023.2402.2529.2299.6527-.023.8929l-2.83164 2.6891h1.57566c.25538 0 .48558.1538.58348.3897.0977.2359.0439.5075-.1366.6882l-3.78944 3.7948c-.12335.1235-.28512.1853-.4469.1853zM12.5026 19.2488c-.1617 0-.3235-.0617-.4468-.1852-.2465-.2468-.2464-.6466.0005-.8932l2.7099-2.7072h-1.632c-.2581 0-.4903-.1571-.5863-.3967-.096-.2397-.0365-.5136.1502-.6918l3.979-3.7971c.2524-.2408.6521-.2316.8929.0208.2408.2524.2315.6521-.0208.8929L14.7108 14.2h1.5813c.2555 0 .4858.154.5836.3901.0977.236.0435.5078-.1373.6883l-3.7895 3.7856c-.1232.1232-.2847.1848-.4463.1848zM9.28155 22.2804c-.16175 0-.32349-.0617-.44684-.1852-.24651-.2468-.24632-.6467.0005-.8932l1.58159-1.58c.2468-.2465.6466-.2463.8932.0004.2465.2468.2463.6468-.0005.8932l-1.58161 1.58c-.12329.1232-.28485.1848-.44634.1848zM3.5342 20.1961c-.16175 0-.32347-.0617-.44683-.1851-.24652-.2468-.24631-.6466.00046-.8932l.99739-.9964c.24677-.2464.64666-.2463.89319.0004.24652.2468.24631.6467-.00046.8932l-.99739.9964c-.1233.1232-.28483.1847-.44636.1847zM14.8395 21.0804c-.1618 0-.3235-.0617-.4469-.1852-.2465-.2468-.2463-.6466.0005-.8932l3.2837-3.2804c.2468-.2465.6467-.2463.8932.0005.2465.2467.2463.6466-.0004.8931l-3.2838 3.2804c-.1233.1232-.2848.1848-.4463.1848z"/>
  </g>
  <defs>
    <clipPath id="clip0">
      <path fill="#fff" transform="translate(0 1)" d="M0 0h24v21.2842H0z"/>
    </clipPath>
  </defs>
</svg>
