<svg fill="none" xmlns="http://www.w3.org/2000/svg" viewBox="0 0 24 24">
  <path d="M6.66259 22.6604c-.21695 0-.4281-.1122-.54501-.3132-.17499-.3008-.07301-.6863.22772-.8613l3.8114-2.2172c.3007-.1752.6863-.073.8612.2277.175.3006.073.6863-.2277.8612l-3.81145 2.2173c-.0996.058-.20863.0855-.31616.0855z" fill="#ffffff"/>
  <path d="M10.5049 22.6035c-.1015 0-.2044-.0247-.2999-.0764l-3.87544-2.1033c-.30577-.166-.41909-.5484-.25317-.8542.16598-.3058.54835-.419.85411-.2532l3.8755 2.1034c.3057.166.4191.5483.2531.8542-.1141.2102-.3306.3295-.5542.3295z" fill="#ffffff"/>
  <path d="M8.56663 23.748h-.00031c-.34791 0-.6298-.2967-.62961-.6445l.0022-4.3337c.00019-.3479.28221-.6281.62992-.6281h.00032c.34791 0 .6298.2736.62961.6215l-.00221 4.3453c-.00019.3478-.2822.6395-.62992.6395zM12.6468 20.5187c-.2169 0-.4281-.1122-.545-.3133-.175-.3007-.073-.6863.2278-.8612l3.8114-2.2173c.3006-.1751.6863-.073.8612.2277.1749.3007.073.6863-.2277.8613l-3.8115 2.2172c-.0996.058-.2086.0856-.3162.0856z" fill="#ffffff"/>
  <path d="M16.4892 20.4617c-.1015 0-.2045-.0246-.2999-.0764l-3.8755-2.1033c-.3057-.166-.4191-.5484-.2531-.8542.166-.3057.5483-.419.8541-.2531l3.8755 2.1033c.3057.166.419.5484.2531.8542-.1141.2102-.3306.3295-.5542.3295z" fill="#ffffff"/>
  <path d="M14.5509 21.6063h-.0003c-.3479 0-.6298-.2967-.6296-.6445l.0022-4.3338c.0002-.3478.2822-.628.6299-.628h.0003c.3479 0 .6298.2736.6296.6215l-.0022 4.3452c-.0002.3478-.2822.6396-.6299.6396zM4.40317 14.5041C1.97337 14.4881 0 12.5046 0 10.0826c0-2.10465 1.4518-3.86396 3.42813-4.3113-.03213-.1768-.04826-.35721-.04826-.54057 0-1.65805 1.34893-3.00697 3.00697-3.00697.55074 0 1.07861.14698 1.53916.4224C9.18796.977341 11.1352 0 13.2604 0c3.3213 0 6.1209 2.44663 6.6177 5.67058C22.1769 5.82545 24 7.74515 24 10.0826c0 2.414-1.964 4.3974-4.378 4.4211l-15.21883.0004zM6.38684 3.48691c-.96152 0-1.74381.78226-1.74381 1.74382 0 .27431.06226.53727.18506.78151.09644.19182.08882.41948-.02023.60447-.10905.18493-.30459.30183-.51914.31029-1.69656.06701-3.02556 1.45308-3.02556 3.1556 0 1.7301 1.41047 3.1469 3.14417 3.1583l15.20847-.0003c1.7182-.0169 3.121-1.4336 3.121-3.158 0-1.74187-1.4171-3.15894-3.1589-3.15894-.0649 0-.1355.00278-.222.00884-.1676.01168-.3331-.04409-.4596-.15474s-.2037-.26722-.2145-.4349c-.1827-2.84845-2.5641-5.0797-5.4214-5.0797-1.9162 0-3.65427.9795-4.64933 2.62016-.10073.1661-.27233.27659-.46522.29963-.19282.02276-.38564-.04401-.52263-.18177-.32981-.33164-.76888-.51427-1.23638-.51427z" fill="#ffffff"/>
</svg>
