<svg fill="none" xmlns="http://www.w3.org/2000/svg" viewBox="0 0 24 24">
  <g clip-path="url(#clip0)" fill="#ffffff">
    <path d="M19.8291 13.2991H2.52432c-1.34509 0-2.4815038-1.1582-2.4815038-2.5291 0-1.39464 1.1113838-2.52925 2.4774338-2.52925 1.36498 0 2.47542 1.12718 2.47542 2.51265 0 .3776-.30615.6837-.68376.6837-.3776 0-.68376-.3061-.68376-.6837 0-.6207-.50734-1.14513-1.1079-1.14513-.60163 0-1.10991.53203-1.10991 1.16173 0 .6297.51015 1.1616 1.11398 1.1616H19.8291c.3775 0 .6837.3061.6837.6838 0 .3776-.3062.6837-.6837.6837z"/>
    <path d="M23.3162 10.359H9.30858c-1.71802 0-3.11574-1.41152-3.11574-3.14649s1.39136-3.1465 3.10159-3.1465c1.70627 0 3.09447 1.40585 3.09447 3.13388 0 .37764-.3062.68376-.6837.68376-.3777 0-.6838-.30612-.6838-.68376 0-.97396-.7748-1.76636-1.72697-1.76636-.95617 0-1.73409.79804-1.73409 1.77898 0 .96427.80055 1.77895 1.74824 1.77895H23.3162c.3776 0 .6838.30612.6838.68376 0 .37768-.3062.68378-.6838.68378zM4.74286 20.9452c-.82999 0-1.6083-.315-2.19164-.8869-.58907-.5776-.91352-1.3532-.91352-2.184 0-1.6933 1.39609-3.0709 3.1121-3.0709H21.812c.3775 0 .6837.3062.6837.6838 0 .3775-.3062.6837-.6837.6837H4.7498c-.97829 0-1.74458.7482-1.74458 1.7034s.76329 1.7033 1.73764 1.7033c.97242 0 1.73418-.7537 1.73418-1.7159 0-.3776.30615-.6837.68379-.6837.37757 0 .68376.3061.68376.6837 0 1.7003-1.39146 3.0835-3.10173 3.0835z"/>
  </g>
  <defs>
    <clipPath id="clip0">
      <path fill="#fff" transform="translate(0 4)" d="M0 0h24v16.9573H0z"/>
    </clipPath>
  </defs>
</svg>
